<mxfile host="Electron" modified="2024-04-22T06:32:49.560Z" agent="Mozilla/5.0 (Windows NT 10.0; Win64; x64) AppleWebKit/537.36 (KHTML, like Gecko) draw.io/24.2.5 Chrome/120.0.6099.109 Electron/28.1.0 Safari/537.36" etag="nqJR7LKXfafFx9HbTjtX" version="24.2.5" type="device">
  <diagram name="페이지-1" id="6SUfYnc5u5Er9Yvq4VUi">
    <mxGraphModel dx="700" dy="408" grid="1" gridSize="10" guides="1" tooltips="1" connect="1" arrows="1" fold="1" page="1" pageScale="1" pageWidth="827" pageHeight="1169" math="0" shadow="0">
      <root>
        <mxCell id="0" />
        <mxCell id="1" parent="0" />
        <mxCell id="bw-rZZzoqHeHBtoC_p1n-1" value="학생" style="rounded=0;whiteSpace=wrap;html=1;" vertex="1" parent="1">
          <mxGeometry x="300" y="420" width="120" height="60" as="geometry" />
        </mxCell>
        <mxCell id="bw-rZZzoqHeHBtoC_p1n-2" value="과정" style="rounded=0;whiteSpace=wrap;html=1;" vertex="1" parent="1">
          <mxGeometry x="660" y="420" width="120" height="60" as="geometry" />
        </mxCell>
        <mxCell id="bw-rZZzoqHeHBtoC_p1n-5" value="" style="edgeStyle=orthogonalEdgeStyle;rounded=0;orthogonalLoop=1;jettySize=auto;html=1;endArrow=none;endFill=0;" edge="1" parent="1" source="bw-rZZzoqHeHBtoC_p1n-3" target="bw-rZZzoqHeHBtoC_p1n-2">
          <mxGeometry relative="1" as="geometry" />
        </mxCell>
        <mxCell id="bw-rZZzoqHeHBtoC_p1n-6" value="" style="edgeStyle=orthogonalEdgeStyle;rounded=0;orthogonalLoop=1;jettySize=auto;html=1;endArrow=none;endFill=0;" edge="1" parent="1" source="bw-rZZzoqHeHBtoC_p1n-3">
          <mxGeometry relative="1" as="geometry">
            <mxPoint x="420" y="450" as="targetPoint" />
          </mxGeometry>
        </mxCell>
        <mxCell id="bw-rZZzoqHeHBtoC_p1n-3" value="&lt;div&gt;등록&lt;/div&gt;" style="rhombus;whiteSpace=wrap;html=1;" vertex="1" parent="1">
          <mxGeometry x="460" y="400" width="160" height="100" as="geometry" />
        </mxCell>
        <mxCell id="bw-rZZzoqHeHBtoC_p1n-7" value="&lt;u&gt;학번&lt;/u&gt;" style="ellipse;whiteSpace=wrap;html=1;" vertex="1" parent="1">
          <mxGeometry x="350" y="330" width="90" height="60" as="geometry" />
        </mxCell>
        <mxCell id="bw-rZZzoqHeHBtoC_p1n-8" value="학생이름" style="ellipse;whiteSpace=wrap;html=1;" vertex="1" parent="1">
          <mxGeometry x="200" y="417.5" width="70" height="62.5" as="geometry" />
        </mxCell>
        <mxCell id="bw-rZZzoqHeHBtoC_p1n-9" value="휴대폰" style="ellipse;whiteSpace=wrap;html=1;" vertex="1" parent="1">
          <mxGeometry x="325" y="510" width="70" height="30" as="geometry" />
        </mxCell>
        <mxCell id="bw-rZZzoqHeHBtoC_p1n-15" value="과정명" style="ellipse;whiteSpace=wrap;html=1;" vertex="1" parent="1">
          <mxGeometry x="810" y="420" width="80" height="60" as="geometry" />
        </mxCell>
        <mxCell id="bw-rZZzoqHeHBtoC_p1n-17" value="&lt;u&gt;과정코드&lt;/u&gt;" style="ellipse;whiteSpace=wrap;html=1;" vertex="1" parent="1">
          <mxGeometry x="700" y="340" width="80" height="60" as="geometry" />
        </mxCell>
        <mxCell id="bw-rZZzoqHeHBtoC_p1n-18" value="학점" style="ellipse;whiteSpace=wrap;html=1;" vertex="1" parent="1">
          <mxGeometry x="710" y="510" width="80" height="60" as="geometry" />
        </mxCell>
        <mxCell id="bw-rZZzoqHeHBtoC_p1n-19" value="" style="endArrow=none;html=1;rounded=0;entryX=0.5;entryY=1;entryDx=0;entryDy=0;" edge="1" parent="1" source="bw-rZZzoqHeHBtoC_p1n-2" target="bw-rZZzoqHeHBtoC_p1n-17">
          <mxGeometry width="50" height="50" relative="1" as="geometry">
            <mxPoint x="500" y="490" as="sourcePoint" />
            <mxPoint x="550" y="440" as="targetPoint" />
          </mxGeometry>
        </mxCell>
        <mxCell id="bw-rZZzoqHeHBtoC_p1n-20" value="" style="endArrow=none;html=1;rounded=0;entryX=0;entryY=0.5;entryDx=0;entryDy=0;exitX=1;exitY=0.5;exitDx=0;exitDy=0;" edge="1" parent="1" source="bw-rZZzoqHeHBtoC_p1n-2" target="bw-rZZzoqHeHBtoC_p1n-15">
          <mxGeometry width="50" height="50" relative="1" as="geometry">
            <mxPoint x="739" y="430" as="sourcePoint" />
            <mxPoint x="750" y="390" as="targetPoint" />
          </mxGeometry>
        </mxCell>
        <mxCell id="bw-rZZzoqHeHBtoC_p1n-21" value="" style="endArrow=none;html=1;rounded=0;entryX=0.5;entryY=0;entryDx=0;entryDy=0;exitX=0.5;exitY=1;exitDx=0;exitDy=0;" edge="1" parent="1" source="bw-rZZzoqHeHBtoC_p1n-2" target="bw-rZZzoqHeHBtoC_p1n-18">
          <mxGeometry width="50" height="50" relative="1" as="geometry">
            <mxPoint x="749" y="440" as="sourcePoint" />
            <mxPoint x="760" y="400" as="targetPoint" />
          </mxGeometry>
        </mxCell>
        <mxCell id="bw-rZZzoqHeHBtoC_p1n-22" value="" style="endArrow=none;html=1;rounded=0;entryX=0.5;entryY=1;entryDx=0;entryDy=0;" edge="1" parent="1" source="bw-rZZzoqHeHBtoC_p1n-1" target="bw-rZZzoqHeHBtoC_p1n-7">
          <mxGeometry width="50" height="50" relative="1" as="geometry">
            <mxPoint x="739" y="430" as="sourcePoint" />
            <mxPoint x="750" y="390" as="targetPoint" />
          </mxGeometry>
        </mxCell>
        <mxCell id="bw-rZZzoqHeHBtoC_p1n-23" value="" style="endArrow=none;html=1;rounded=0;entryX=0.5;entryY=1;entryDx=0;entryDy=0;exitX=0.5;exitY=0;exitDx=0;exitDy=0;" edge="1" parent="1" source="bw-rZZzoqHeHBtoC_p1n-9" target="bw-rZZzoqHeHBtoC_p1n-1">
          <mxGeometry width="50" height="50" relative="1" as="geometry">
            <mxPoint x="749" y="440" as="sourcePoint" />
            <mxPoint x="760" y="400" as="targetPoint" />
          </mxGeometry>
        </mxCell>
        <mxCell id="bw-rZZzoqHeHBtoC_p1n-24" value="" style="endArrow=none;html=1;rounded=0;entryX=1;entryY=0.5;entryDx=0;entryDy=0;exitX=0;exitY=0.5;exitDx=0;exitDy=0;" edge="1" parent="1" source="bw-rZZzoqHeHBtoC_p1n-1" target="bw-rZZzoqHeHBtoC_p1n-8">
          <mxGeometry width="50" height="50" relative="1" as="geometry">
            <mxPoint x="388" y="430" as="sourcePoint" />
            <mxPoint x="405" y="400" as="targetPoint" />
          </mxGeometry>
        </mxCell>
      </root>
    </mxGraphModel>
  </diagram>
</mxfile>
